{"title":"The Amazing Spiderman 2012 (Audio Complete) HDCaM CrEwSaDe","uid":7432399,"size":1069988620,"categoryP":"video","categoryS":"movies","magnet":"?xt=urn:btih:0ec188e19fb246816d3209ff19717fd6c4183ac4&amp;dn=The+Amazing+Spiderman+2012+%28Audio+Complete%29+HDCaM+CrEwSaDe&amp;tr=udp%3A%2F%2Ftracker.openbittorrent.com%3A80&amp;tr=udp%3A%2F%2Fopen.demonii.com%3A1337&amp;tr=udp%3A%2F%2Ftracker.coppersurfer.tk%3A6969&amp;tr=udp%3A%2F%2Fexodus.desync.com%3A6969","seeders":1,"leechers":0,"uploader":".BONE.","files":5,"time":1341980551,"description":"The Amazing Spiderman 2012 Worked Audio Complete HD CaM CrEwSaDe\n\n******************************************************************************************************\nInfo:\nEncoder: BoobyBlue (CamKiller)\nResolution: 720 x 304\nRuntime: 2h 1mn\nRelease Date: Na\nTheatre Date: 3 July 2012 (USA)\nLanguage: English\nSubtitles: No\nIMDB Rating: 7.7\nIMDb URL: http://www.imdb.com/title/tt0948470/\n\nGeneral\nComplete name: The Amazing Spiderman 2012 Worked Audio Complete HD Cam CrEwSaDeThe Amazing Spiderman 2012 Worked Audio HD Cam CrEwSaDe.mp4\nFormat: MPEG-4\nFormat profile: Base Media / Version 2\nCodec ID: mp42\nFile size: 992 MiB\nDuration: 2h 1mn\nOverall bit rate mode: Variable\nOverall bit rate: 1 145 Kbps\nWriting application: TMPGEnc Video Mastering Works 5 Version. 5.0.5.32\n\nVideo\n\nID: 2\nFormat: AVC\nFormat/Info: Advanced Video Codec\nFormat profile: &lt;a class=&quot;__cf_email__&quot; href=&quot;/cdn-cgi/l/email-protection&quot; data-cfemail=&quot;1b53727c735b5728352b&quot;&gt;[email&amp;#160;protected]&lt;/a&gt;&lt;script cf-hash='f9e31' type=&quot;text/javascript&quot;&gt;\n/* &lt;![CDATA[ */!function(){try{var t=&quot;currentScript&quot;in document?document.currentScript:function(){for(var t=document.getElementsByTagName(&quot;script&quot;),e=t.length;e--;)if(t[e].getAttribute(&quot;cf-hash&quot;))return t[e]}();if(t&amp;&amp;t.previousSibling){var e,r,n,i,c=t.previousSibling,a=c.getAttribute(&quot;data-cfemail&quot;);if(a){for(e=&quot;&quot;,r=parseInt(a.substr(0,2),16),n=2;a.length-n;n+=2)i=parseInt(a.substr(n,2),16)^r,e+=String.fromCharCode(i);e=document.createTextNode(e),c.parentNode.replaceChild(e,c)}}}catch(u){}}();/* ]]&gt; */&lt;/script&gt;\nFormat settings, CABAC: Yes\nFormat settings, ReFrames: 3 frames\nCodec ID: avc1\nCodec ID/Info: Advanced Video Coding\nDuration: 2h 1mn\nBit rate mode: Constant\nBit rate: 1 024 Kbps / 1 024 Kbps\nWidth: 720 pixels\nHeight: 304 pixels\nDisplay aspect ratio: 2.35:1\nFrame rate mode: Constant\nFrame rate: 25.000 fps\nStandard: NTSC\nColor space: YUV\nChroma subsampling: 4:2:0\nBit depth: 8 bits\nScan type: Progressive\nBits/(Pixel*Frame): 0.187\nStream size: 865 MiB (87%)\nWriting library: x264 core 112\n\nAudio\n\nID: 1\nFormat: AAC\nFormat/Info: Advanced Audio Codec\nFormat profile: LC\nCodec ID: 40\nDuration: 2h 1mn\nBit rate mode: Variable\nBit rate: 144 Kbps\nMaximum bit rate: 1 588 Kbps\nChannel(s): 6 channels\nChannel positions: Front: L C R, Side: L R, LFE\nSampling rate: 44.1 KHz\nCompression mode: Lossy\nDelay relative to video: -51ms\nStream size: 125 MiB (13%)\n\nSOURCES: VIDEO: 26k THANKS AUDIO: 26k Ty\n\nPlot:\nPeter Parker finds a clue that might help him understand why his parents disappeared when he was young. His path puts him on a collision course with Dr. Curt Connors, his father's former partner\n &lt;a href=&quot;\nhttp://i1179.photobucket.com/albums/x394/crewsade/boobyblue/3-22.jpg&quot; rel=&quot;nofollow&quot; target=&quot;_NEW&quot;&gt;\nhttp://i1179.photobucket.com/albums/x394/crewsade/boobyblue/3-22.jpg&lt;/a&gt; &lt;a href=&quot;\nhttp://i1179.photobucket.com/albums/x394/crewsade/boobyblue/7-22.jpg&quot; rel=&quot;nofollow&quot; target=&quot;_NEW&quot;&gt;\nhttp://i1179.photobucket.com/albums/x394/crewsade/boobyblue/7-22.jpg&lt;/a&gt; &lt;a href=&quot;\nhttp://i1179.photobucket.com/albums/x394/crewsade/boobyblue/6-21.jpg&quot; rel=&quot;nofollow&quot; target=&quot;_NEW&quot;&gt;\nhttp://i1179.photobucket.com/albums/x394/crewsade/boobyblue/6-21.jpg&lt;/a&gt; &lt;a href=&quot;\nhttp://i1179.photobucket.com/albums/x394/crewsade/boobyblue/4-24.jpg&quot; rel=&quot;nofollow&quot; target=&quot;_NEW&quot;&gt;\nhttp://i1179.photobucket.com/albums/x394/crewsade/boobyblue/4-24.jpg&lt;/a&gt; &lt;a href=&quot;\nhttp://i1179.photobucket.com/albums/x394/crewsade/boobyblue/2-25.jpg&quot; rel=&quot;nofollow&quot; target=&quot;_NEW&quot;&gt;\nhttp://i1179.photobucket.com/albums/x394/crewsade/boobyblue/2-25.jpg&lt;/a&gt;\n\n\nNotes:\nOk heres version 1 the audio is eww but filtered it to make it sumwhat more listenable, didnt fiddle to much w the colors the video just needed smoothed out and cleaned a bit, but i did make it 5.1 surround so keep the volume low and u\nyou will be fine also added the end scene after credits to the encode all 1 file hope u like So Enjoy a True Quality encode frrom CrEwSaDe!","torrent":{"xt":"urn:btih:0ec188e19fb246816d3209ff19717fd6c4183ac4","amp;dn":"The+Amazing+Spiderman+2012+%28Audio+Complete%29+HDCaM+CrEwSaDe","amp;tr":["udp%3A%2F%2Ftracker.openbittorrent.com%3A80","udp%3A%2F%2Fopen.demonii.com%3A1337","udp%3A%2F%2Ftracker.coppersurfer.tk%3A6969","udp%3A%2F%2Fexodus.desync.com%3A6969"],"infoHash":"0ec188e19fb246816d3209ff19717fd6c4183ac4","infoHashBuffer":{"type":"Buffer","data":[14,193,136,225,159,178,70,129,109,50,9,255,25,113,127,214,196,24,58,196]},"announce":[],"urlList":[]}}